{
	"asset":
	{
		"version": "2.0",
		"generator": "Unreal Engine 5.3.2"
	},
	"scene": 0,
	"accessors": [
		{
			"bufferView": 0,
			"count": 90,
			"type": "SCALAR",
			"componentType": 5121
		},
		{
			"bufferView": 1,
			"count": 54,
			"type": "VEC3",
			"componentType": 5126,
			"min": [ 0, -7.04133015e-07, -8 ],
			"max": [ 11.8000002, 0.400001198, -0 ]
		},
		{
			"bufferView": 2,
			"count": 54,
			"type": "VEC3",
			"componentType": 5126
		},
		{
			"bufferView": 3,
			"count": 54,
			"type": "VEC4",
			"componentType": 5126
		},
		{
			"bufferView": 4,
			"count": 54,
			"type": "VEC2",
			"componentType": 5126
		},
		{
			"bufferView": 5,
			"count": 54,
			"type": "VEC2",
			"componentType": 5126
		},
		{
			"bufferView": 6,
			"count": 90,
			"type": "SCALAR",
			"componentType": 5121
		},
		{
			"bufferView": 7,
			"count": 28,
			"type": "VEC3",
			"componentType": 5126,
			"min": [ 0, 0.399999619, -8 ],
			"max": [ 11.8000002, 0.40000242, 6.0398321e-08 ]
		},
		{
			"bufferView": 8,
			"count": 28,
			"type": "VEC3",
			"componentType": 5126
		},
		{
			"bufferView": 9,
			"count": 28,
			"type": "VEC4",
			"componentType": 5126
		},
		{
			"bufferView": 10,
			"count": 28,
			"type": "VEC2",
			"componentType": 5126
		},
		{
			"bufferView": 11,
			"count": 28,
			"type": "VEC2",
			"componentType": 5126
		},
		{
			"bufferView": 12,
			"count": 126,
			"type": "SCALAR",
			"componentType": 5121
		},
		{
			"bufferView": 13,
			"count": 34,
			"type": "VEC3",
			"componentType": 5126,
			"min": [ 0, -3.98957297e-07, -8.00000095 ],
			"max": [ 11.8000002, 2.42866986e-06, -0 ]
		},
		{
			"bufferView": 14,
			"count": 34,
			"type": "VEC3",
			"componentType": 5126
		},
		{
			"bufferView": 15,
			"count": 34,
			"type": "VEC4",
			"componentType": 5126
		},
		{
			"bufferView": 16,
			"count": 34,
			"type": "VEC2",
			"componentType": 5126
		},
		{
			"bufferView": 17,
			"count": 34,
			"type": "VEC2",
			"componentType": 5126
		},
		{
			"bufferView": 18,
			"count": 12,
			"type": "SCALAR",
			"componentType": 5121
		},
		{
			"bufferView": 19,
			"count": 6,
			"type": "VEC3",
			"componentType": 5126,
			"min": [ 1.10000002, 1.20796642e-06, -8.00000095 ],
			"max": [ 7.39999962, 0.400001198, -8 ]
		},
		{
			"bufferView": 20,
			"count": 6,
			"type": "VEC3",
			"componentType": 5126
		},
		{
			"bufferView": 21,
			"count": 6,
			"type": "VEC4",
			"componentType": 5126
		},
		{
			"bufferView": 22,
			"count": 6,
			"type": "VEC2",
			"componentType": 5126
		},
		{
			"bufferView": 23,
			"count": 6,
			"type": "VEC2",
			"componentType": 5126
		},
		{
			"bufferView": 24,
			"count": 36,
			"type": "SCALAR",
			"componentType": 5121
		},
		{
			"bufferView": 25,
			"count": 12,
			"type": "VEC3",
			"componentType": 5126,
			"min": [ 7.79999924, 0.399999976, -8 ],
			"max": [ 10, 0.40000242, 6.0398321e-08 ]
		},
		{
			"bufferView": 26,
			"count": 12,
			"type": "VEC3",
			"componentType": 5126
		},
		{
			"bufferView": 27,
			"count": 12,
			"type": "VEC4",
			"componentType": 5126
		},
		{
			"bufferView": 28,
			"count": 12,
			"type": "VEC2",
			"componentType": 5126
		},
		{
			"bufferView": 29,
			"count": 12,
			"type": "VEC2",
			"componentType": 5126
		}
	],
	"buffers": [
		{
			"uri": "Mesh_Floor_Bedroom_01.bin",
			"byteLength": 7864
		}
	],
	"bufferViews": [
		{
			"buffer": 0,
			"byteLength": 90,
			"target": 34963
		},
		{
			"buffer": 0,
			"byteLength": 648,
			"byteOffset": 92,
			"target": 34962
		},
		{
			"buffer": 0,
			"byteLength": 648,
			"byteOffset": 740,
			"target": 34962
		},
		{
			"buffer": 0,
			"byteLength": 864,
			"byteOffset": 1388,
			"target": 34962
		},
		{
			"buffer": 0,
			"byteLength": 432,
			"byteOffset": 2252,
			"target": 34962
		},
		{
			"buffer": 0,
			"byteLength": 432,
			"byteOffset": 2684,
			"target": 34962
		},
		{
			"buffer": 0,
			"byteLength": 90,
			"byteOffset": 3116,
			"target": 34963
		},
		{
			"buffer": 0,
			"byteLength": 336,
			"byteOffset": 3208,
			"target": 34962
		},
		{
			"buffer": 0,
			"byteLength": 336,
			"byteOffset": 3544,
			"target": 34962
		},
		{
			"buffer": 0,
			"byteLength": 448,
			"byteOffset": 3880,
			"target": 34962
		},
		{
			"buffer": 0,
			"byteLength": 224,
			"byteOffset": 4328,
			"target": 34962
		},
		{
			"buffer": 0,
			"byteLength": 224,
			"byteOffset": 4552,
			"target": 34962
		},
		{
			"buffer": 0,
			"byteLength": 126,
			"byteOffset": 4776,
			"target": 34963
		},
		{
			"buffer": 0,
			"byteLength": 408,
			"byteOffset": 4904,
			"target": 34962
		},
		{
			"buffer": 0,
			"byteLength": 408,
			"byteOffset": 5312,
			"target": 34962
		},
		{
			"buffer": 0,
			"byteLength": 544,
			"byteOffset": 5720,
			"target": 34962
		},
		{
			"buffer": 0,
			"byteLength": 272,
			"byteOffset": 6264,
			"target": 34962
		},
		{
			"buffer": 0,
			"byteLength": 272,
			"byteOffset": 6536,
			"target": 34962
		},
		{
			"buffer": 0,
			"byteLength": 12,
			"byteOffset": 6808,
			"target": 34963
		},
		{
			"buffer": 0,
			"byteLength": 72,
			"byteOffset": 6820,
			"target": 34962
		},
		{
			"buffer": 0,
			"byteLength": 72,
			"byteOffset": 6892,
			"target": 34962
		},
		{
			"buffer": 0,
			"byteLength": 96,
			"byteOffset": 6964,
			"target": 34962
		},
		{
			"buffer": 0,
			"byteLength": 48,
			"byteOffset": 7060,
			"target": 34962
		},
		{
			"buffer": 0,
			"byteLength": 48,
			"byteOffset": 7108,
			"target": 34962
		},
		{
			"buffer": 0,
			"byteLength": 36,
			"byteOffset": 7156,
			"target": 34963
		},
		{
			"buffer": 0,
			"byteLength": 144,
			"byteOffset": 7192,
			"target": 34962
		},
		{
			"buffer": 0,
			"byteLength": 144,
			"byteOffset": 7336,
			"target": 34962
		},
		{
			"buffer": 0,
			"byteLength": 192,
			"byteOffset": 7480,
			"target": 34962
		},
		{
			"buffer": 0,
			"byteLength": 96,
			"byteOffset": 7672,
			"target": 34962
		},
		{
			"buffer": 0,
			"byteLength": 96,
			"byteOffset": 7768,
			"target": 34962
		}
	],
	"images": [
		{
			"uri": "Inst_Brick_01_Mesh_Floor_Bedroom_01_BaseColor.png"
		},
		{
			"uri": "Inst_Brick_01_Mesh_Floor_Bedroom_01_MetallicRoughness.png"
		},
		{
			"uri": "Inst_Brick_01_Mesh_Floor_Bedroom_01_Normal.png"
		},
		{
			"uri": "Inst_Parquet_Mesh_Floor_Bedroom_01_BaseColor.png"
		},
		{
			"uri": "Inst_Parquet_Mesh_Floor_Bedroom_01_MetallicRoughness.png"
		},
		{
			"uri": "Inst_Parquet_Mesh_Floor_Bedroom_01_Normal.png"
		},
		{
			"uri": "Inst_Concrete_01_Mesh_Floor_Bedroom_01_BaseColor.png"
		},
		{
			"uri": "Inst_Concrete_01_Mesh_Floor_Bedroom_01_MetallicRoughness.png"
		},
		{
			"uri": "Inst_Concrete_01_Mesh_Floor_Bedroom_01_Normal.png"
		},
		{
			"uri": "Inst_Concrete_01_Mesh_Floor_Bedroom_01_BaseColor_1.png"
		},
		{
			"uri": "Inst_Concrete_01_Mesh_Floor_Bedroom_01_MetallicRoughness_1.png"
		},
		{
			"uri": "Inst_Concrete_01_Mesh_Floor_Bedroom_01_Normal_1.png"
		},
		{
			"uri": "Inst_Parquet_Mesh_Floor_Bedroom_01_BaseColor_1.png"
		},
		{
			"uri": "Inst_Parquet_Mesh_Floor_Bedroom_01_MetallicRoughness_1.png"
		},
		{
			"uri": "Inst_Parquet_Mesh_Floor_Bedroom_01_Normal_1.png"
		}
	],
	"materials": [
		{
			"name": "Inst_Brick_01_Mesh_Floor_Bedroom_01",
			"pbrMetallicRoughness":
			{
				"baseColorTexture":
				{
					"index": 0,
					"texCoord": 1,
					"extensions":
					{
						"KHR_texture_transform":
						{
							"offset": [ -0.0147066861, -8.02904606 ],
							"scale": [ 1.02370405, 16.9958515 ]
						}
					}
				},
				"metallicRoughnessTexture":
				{
					"index": 1,
					"texCoord": 1,
					"extensions":
					{
						"KHR_texture_transform":
						{
							"offset": [ -0.0147066861, -8.02904606 ],
							"scale": [ 1.02370405, 16.9958515 ]
						}
					}
				}
			},
			"normalTexture":
			{
				"index": 2,
				"texCoord": 1,
				"extensions":
				{
					"KHR_texture_transform":
					{
						"offset": [ -0.0147066861, -8.02904606 ],
						"scale": [ 1.02370405, 16.9958515 ]
					}
				}
			},
			"alphaMode": "MASK",
			"alphaCutoff": 0.333299994,
			"doubleSided": true
		},
		{
			"name": "Inst_Parquet_Mesh_Floor_Bedroom_01",
			"pbrMetallicRoughness":
			{
				"baseColorTexture":
				{
					"index": 3,
					"texCoord": 1,
					"extensions":
					{
						"KHR_texture_transform":
						{
							"offset": [ -0.0117946044, -0.0211502779 ],
							"scale": [ 1.02177286, 2.21069312 ]
						}
					}
				},
				"metallicRoughnessTexture":
				{
					"index": 4,
					"texCoord": 1,
					"extensions":
					{
						"KHR_texture_transform":
						{
							"offset": [ -0.0117946044, -0.0211502779 ],
							"scale": [ 1.02177286, 2.21069312 ]
						}
					}
				}
			},
			"normalTexture":
			{
				"index": 5,
				"texCoord": 1,
				"extensions":
				{
					"KHR_texture_transform":
					{
						"offset": [ -0.0117946044, -0.0211502779 ],
						"scale": [ 1.02177286, 2.21069312 ]
					}
				}
			},
			"alphaMode": "MASK",
			"alphaCutoff": 0.333299994
		},
		{
			"name": "Inst_Concrete_01_Mesh_Floor_Bedroom_01",
			"pbrMetallicRoughness":
			{
				"baseColorTexture":
				{
					"index": 6,
					"texCoord": 1,
					"extensions":
					{
						"KHR_texture_transform":
						{
							"offset": [ -0.0118063847, -1.21288216 ],
							"scale": [ 1.02279341, 2.2358079 ]
						}
					}
				},
				"metallicRoughnessTexture":
				{
					"index": 7,
					"texCoord": 1,
					"extensions":
					{
						"KHR_texture_transform":
						{
							"offset": [ -0.0118063847, -1.21288216 ],
							"scale": [ 1.02279341, 2.2358079 ]
						}
					}
				}
			},
			"normalTexture":
			{
				"index": 8,
				"texCoord": 1,
				"extensions":
				{
					"KHR_texture_transform":
					{
						"offset": [ -0.0118063847, -1.21288216 ],
						"scale": [ 1.02279341, 2.2358079 ]
					}
				}
			},
			"alphaMode": "MASK",
			"alphaCutoff": 0.333299994,
			"doubleSided": true
		},
		{
			"name": "Inst_Concrete_01_Mesh_Floor_Bedroom_01",
			"pbrMetallicRoughness":
			{
				"baseColorTexture":
				{
					"index": 9,
					"texCoord": 1,
					"extensions":
					{
						"KHR_texture_transform":
						{
							"offset": [ -0.0272244699, -19.3400002 ],
							"scale": [ 2.35847044, 40.9599991 ]
						}
					}
				},
				"metallicRoughnessTexture":
				{
					"index": 10,
					"texCoord": 1,
					"extensions":
					{
						"KHR_texture_transform":
						{
							"offset": [ -0.0272244699, -19.3400002 ],
							"scale": [ 2.35847044, 40.9599991 ]
						}
					}
				}
			},
			"normalTexture":
			{
				"index": 11,
				"texCoord": 1,
				"extensions":
				{
					"KHR_texture_transform":
					{
						"offset": [ -0.0272244699, -19.3400002 ],
						"scale": [ 2.35847044, 40.9599991 ]
					}
				}
			},
			"alphaMode": "MASK",
			"alphaCutoff": 0.333299994,
			"doubleSided": true
		},
		{
			"name": "Inst_Parquet_Mesh_Floor_Bedroom_01",
			"pbrMetallicRoughness":
			{
				"baseColorTexture":
				{
					"index": 12,
					"texCoord": 1,
					"extensions":
					{
						"KHR_texture_transform":
						{
							"offset": [ -3.61904764, -0.0211502779 ],
							"scale": [ 5.73669481, 2.21069312 ]
						}
					}
				},
				"metallicRoughnessTexture":
				{
					"index": 13,
					"texCoord": 1,
					"extensions":
					{
						"KHR_texture_transform":
						{
							"offset": [ -3.61904764, -0.0211502779 ],
							"scale": [ 5.73669481, 2.21069312 ]
						}
					}
				}
			},
			"normalTexture":
			{
				"index": 14,
				"texCoord": 1,
				"extensions":
				{
					"KHR_texture_transform":
					{
						"offset": [ -3.61904764, -0.0211502779 ],
						"scale": [ 5.73669481, 2.21069312 ]
					}
				}
			},
			"alphaMode": "MASK",
			"alphaCutoff": 0.333299994
		}
	],
	"meshes": [
		{
			"name": "Mesh_Floor_Bedroom_01",
			"primitives": [
				{
					"attributes":
					{
						"POSITION": 1,
						"NORMAL": 2,
						"TANGENT": 3,
						"TEXCOORD_0": 4,
						"TEXCOORD_1": 5
					},
					"indices": 0,
					"material": 0
				},
				{
					"attributes":
					{
						"POSITION": 7,
						"NORMAL": 8,
						"TANGENT": 9,
						"TEXCOORD_0": 10,
						"TEXCOORD_1": 11
					},
					"indices": 6,
					"material": 1
				},
				{
					"attributes":
					{
						"POSITION": 13,
						"NORMAL": 14,
						"TANGENT": 15,
						"TEXCOORD_0": 16,
						"TEXCOORD_1": 17
					},
					"indices": 12,
					"material": 2
				},
				{
					"attributes":
					{
						"POSITION": 19,
						"NORMAL": 20,
						"TANGENT": 21,
						"TEXCOORD_0": 22,
						"TEXCOORD_1": 23
					},
					"indices": 18,
					"material": 3
				},
				{
					"attributes":
					{
						"POSITION": 25,
						"NORMAL": 26,
						"TANGENT": 27,
						"TEXCOORD_0": 28,
						"TEXCOORD_1": 29
					},
					"indices": 24,
					"material": 4
				}
			]
		}
	],
	"nodes": [
		{
			"mesh": 0
		}
	],
	"samplers": [
		{
			"minFilter": 9987,
			"magFilter": 9729
		}
	],
	"scenes": [
		{
			"nodes": [ 0 ]
		}
	],
	"textures": [
		{
			"name": "Inst_Brick_01_Mesh_Floor_Bedroom_01_BaseColor",
			"sampler": 0,
			"source": 0
		},
		{
			"name": "Inst_Brick_01_Mesh_Floor_Bedroom_01_MetallicRoughness",
			"sampler": 0,
			"source": 1
		},
		{
			"name": "Inst_Brick_01_Mesh_Floor_Bedroom_01_Normal",
			"sampler": 0,
			"source": 2
		},
		{
			"name": "Inst_Parquet_Mesh_Floor_Bedroom_01_BaseColor",
			"sampler": 0,
			"source": 3
		},
		{
			"name": "Inst_Parquet_Mesh_Floor_Bedroom_01_MetallicRoughness",
			"sampler": 0,
			"source": 4
		},
		{
			"name": "Inst_Parquet_Mesh_Floor_Bedroom_01_Normal",
			"sampler": 0,
			"source": 5
		},
		{
			"name": "Inst_Concrete_01_Mesh_Floor_Bedroom_01_BaseColor",
			"sampler": 0,
			"source": 6
		},
		{
			"name": "Inst_Concrete_01_Mesh_Floor_Bedroom_01_MetallicRoughness",
			"sampler": 0,
			"source": 7
		},
		{
			"name": "Inst_Concrete_01_Mesh_Floor_Bedroom_01_Normal",
			"sampler": 0,
			"source": 8
		},
		{
			"name": "Inst_Concrete_01_Mesh_Floor_Bedroom_01_BaseColor",
			"sampler": 0,
			"source": 9
		},
		{
			"name": "Inst_Concrete_01_Mesh_Floor_Bedroom_01_MetallicRoughness",
			"sampler": 0,
			"source": 10
		},
		{
			"name": "Inst_Concrete_01_Mesh_Floor_Bedroom_01_Normal",
			"sampler": 0,
			"source": 11
		},
		{
			"name": "Inst_Parquet_Mesh_Floor_Bedroom_01_BaseColor",
			"sampler": 0,
			"source": 12
		},
		{
			"name": "Inst_Parquet_Mesh_Floor_Bedroom_01_MetallicRoughness",
			"sampler": 0,
			"source": 13
		},
		{
			"name": "Inst_Parquet_Mesh_Floor_Bedroom_01_Normal",
			"sampler": 0,
			"source": 14
		}
	],
	"extensionsUsed": [
		"KHR_texture_transform"
	]
}