{
	"asset":
	{
		"version": "2.0",
		"generator": "Unreal Engine 5.3.2"
	},
	"scene": 0,
	"accessors": [
		{
			"bufferView": 0,
			"count": 24,
			"type": "SCALAR",
			"componentType": 5121
		},
		{
			"bufferView": 1,
			"count": 8,
			"type": "VEC3",
			"componentType": 5126,
			"min": [ -5.09999943, 0, -0 ],
			"max": [ -5.09999943, 3.69999981, 5.00000095 ]
		},
		{
			"bufferView": 2,
			"count": 8,
			"type": "VEC3",
			"componentType": 5126
		},
		{
			"bufferView": 3,
			"count": 8,
			"type": "VEC4",
			"componentType": 5126
		},
		{
			"bufferView": 4,
			"count": 8,
			"type": "VEC2",
			"componentType": 5126
		},
		{
			"bufferView": 5,
			"count": 8,
			"type": "VEC2",
			"componentType": 5126
		},
		{
			"bufferView": 6,
			"count": 54,
			"type": "SCALAR",
			"componentType": 5121
		},
		{
			"bufferView": 7,
			"count": 24,
			"type": "VEC3",
			"componentType": 5126,
			"min": [ -4.9000001, 0, 0.19999969 ],
			"max": [ -0.19999969, 3.69999981, 4.80000067 ]
		},
		{
			"bufferView": 8,
			"count": 24,
			"type": "VEC3",
			"componentType": 5126
		},
		{
			"bufferView": 9,
			"count": 24,
			"type": "VEC4",
			"componentType": 5126
		},
		{
			"bufferView": 10,
			"count": 24,
			"type": "VEC2",
			"componentType": 5126
		},
		{
			"bufferView": 11,
			"count": 24,
			"type": "VEC2",
			"componentType": 5126
		},
		{
			"bufferView": 12,
			"count": 6,
			"type": "SCALAR",
			"componentType": 5121
		},
		{
			"bufferView": 13,
			"count": 4,
			"type": "VEC3",
			"componentType": 5126,
			"min": [ -5.09999943, 0, -0 ],
			"max": [ -0.949999809, 3.69999981, 3.05175774e-07 ]
		},
		{
			"bufferView": 14,
			"count": 4,
			"type": "VEC3",
			"componentType": 5126
		},
		{
			"bufferView": 15,
			"count": 4,
			"type": "VEC4",
			"componentType": 5126
		},
		{
			"bufferView": 16,
			"count": 4,
			"type": "VEC2",
			"componentType": 5126
		},
		{
			"bufferView": 17,
			"count": 4,
			"type": "VEC2",
			"componentType": 5126
		},
		{
			"bufferView": 18,
			"count": 6,
			"type": "SCALAR",
			"componentType": 5121
		},
		{
			"bufferView": 19,
			"count": 4,
			"type": "VEC3",
			"componentType": 5126,
			"min": [ -5.09999943, 0, 5 ],
			"max": [ 6.10351549e-07, 3.69999981, 5.00000095 ]
		},
		{
			"bufferView": 20,
			"count": 4,
			"type": "VEC3",
			"componentType": 5126
		},
		{
			"bufferView": 21,
			"count": 4,
			"type": "VEC4",
			"componentType": 5126
		},
		{
			"bufferView": 22,
			"count": 4,
			"type": "VEC2",
			"componentType": 5126
		},
		{
			"bufferView": 23,
			"count": 4,
			"type": "VEC2",
			"componentType": 5126
		},
		{
			"bufferView": 24,
			"count": 42,
			"type": "SCALAR",
			"componentType": 5121
		},
		{
			"bufferView": 25,
			"count": 28,
			"type": "VEC3",
			"componentType": 5126,
			"min": [ -5.09999943, 0, 1.20000088 ],
			"max": [ 9.15527323e-07, 3.10000062, 2.40000153 ]
		},
		{
			"bufferView": 26,
			"count": 28,
			"type": "VEC3",
			"componentType": 5126
		},
		{
			"bufferView": 27,
			"count": 28,
			"type": "VEC4",
			"componentType": 5126
		},
		{
			"bufferView": 28,
			"count": 28,
			"type": "VEC2",
			"componentType": 5126
		},
		{
			"bufferView": 29,
			"count": 28,
			"type": "VEC2",
			"componentType": 5126
		},
		{
			"bufferView": 30,
			"count": 24,
			"type": "SCALAR",
			"componentType": 5121
		},
		{
			"bufferView": 31,
			"count": 12,
			"type": "VEC3",
			"componentType": 5126,
			"min": [ -0.949999809, 0, -0 ],
			"max": [ 9.15527323e-07, 3.69999981, 5.00000095 ]
		},
		{
			"bufferView": 32,
			"count": 12,
			"type": "VEC3",
			"componentType": 5126
		},
		{
			"bufferView": 33,
			"count": 12,
			"type": "VEC4",
			"componentType": 5126
		},
		{
			"bufferView": 34,
			"count": 12,
			"type": "VEC2",
			"componentType": 5126
		},
		{
			"bufferView": 35,
			"count": 12,
			"type": "VEC2",
			"componentType": 5126
		}
	],
	"buffers": [
		{
			"uri": "Mesh_Walls_Bedroom_01.bin",
			"byteLength": 4644
		}
	],
	"bufferViews": [
		{
			"buffer": 0,
			"byteLength": 24,
			"target": 34963
		},
		{
			"buffer": 0,
			"byteLength": 96,
			"byteOffset": 24,
			"target": 34962
		},
		{
			"buffer": 0,
			"byteLength": 96,
			"byteOffset": 120,
			"target": 34962
		},
		{
			"buffer": 0,
			"byteLength": 128,
			"byteOffset": 216,
			"target": 34962
		},
		{
			"buffer": 0,
			"byteLength": 64,
			"byteOffset": 344,
			"target": 34962
		},
		{
			"buffer": 0,
			"byteLength": 64,
			"byteOffset": 408,
			"target": 34962
		},
		{
			"buffer": 0,
			"byteLength": 54,
			"byteOffset": 472,
			"target": 34963
		},
		{
			"buffer": 0,
			"byteLength": 288,
			"byteOffset": 528,
			"target": 34962
		},
		{
			"buffer": 0,
			"byteLength": 288,
			"byteOffset": 816,
			"target": 34962
		},
		{
			"buffer": 0,
			"byteLength": 384,
			"byteOffset": 1104,
			"target": 34962
		},
		{
			"buffer": 0,
			"byteLength": 192,
			"byteOffset": 1488,
			"target": 34962
		},
		{
			"buffer": 0,
			"byteLength": 192,
			"byteOffset": 1680,
			"target": 34962
		},
		{
			"buffer": 0,
			"byteLength": 6,
			"byteOffset": 1872,
			"target": 34963
		},
		{
			"buffer": 0,
			"byteLength": 48,
			"byteOffset": 1880,
			"target": 34962
		},
		{
			"buffer": 0,
			"byteLength": 48,
			"byteOffset": 1928,
			"target": 34962
		},
		{
			"buffer": 0,
			"byteLength": 64,
			"byteOffset": 1976,
			"target": 34962
		},
		{
			"buffer": 0,
			"byteLength": 32,
			"byteOffset": 2040,
			"target": 34962
		},
		{
			"buffer": 0,
			"byteLength": 32,
			"byteOffset": 2072,
			"target": 34962
		},
		{
			"buffer": 0,
			"byteLength": 6,
			"byteOffset": 2104,
			"target": 34963
		},
		{
			"buffer": 0,
			"byteLength": 48,
			"byteOffset": 2112,
			"target": 34962
		},
		{
			"buffer": 0,
			"byteLength": 48,
			"byteOffset": 2160,
			"target": 34962
		},
		{
			"buffer": 0,
			"byteLength": 64,
			"byteOffset": 2208,
			"target": 34962
		},
		{
			"buffer": 0,
			"byteLength": 32,
			"byteOffset": 2272,
			"target": 34962
		},
		{
			"buffer": 0,
			"byteLength": 32,
			"byteOffset": 2304,
			"target": 34962
		},
		{
			"buffer": 0,
			"byteLength": 42,
			"byteOffset": 2336,
			"target": 34963
		},
		{
			"buffer": 0,
			"byteLength": 336,
			"byteOffset": 2380,
			"target": 34962
		},
		{
			"buffer": 0,
			"byteLength": 336,
			"byteOffset": 2716,
			"target": 34962
		},
		{
			"buffer": 0,
			"byteLength": 448,
			"byteOffset": 3052,
			"target": 34962
		},
		{
			"buffer": 0,
			"byteLength": 224,
			"byteOffset": 3500,
			"target": 34962
		},
		{
			"buffer": 0,
			"byteLength": 224,
			"byteOffset": 3724,
			"target": 34962
		},
		{
			"buffer": 0,
			"byteLength": 24,
			"byteOffset": 3948,
			"target": 34963
		},
		{
			"buffer": 0,
			"byteLength": 144,
			"byteOffset": 3972,
			"target": 34962
		},
		{
			"buffer": 0,
			"byteLength": 144,
			"byteOffset": 4116,
			"target": 34962
		},
		{
			"buffer": 0,
			"byteLength": 192,
			"byteOffset": 4260,
			"target": 34962
		},
		{
			"buffer": 0,
			"byteLength": 96,
			"byteOffset": 4452,
			"target": 34962
		},
		{
			"buffer": 0,
			"byteLength": 96,
			"byteOffset": 4548,
			"target": 34962
		}
	],
	"images": [
		{
			"uri": "Inst_Brick_01_Mesh_Walls_Bedroom_01_BaseColor.png"
		},
		{
			"uri": "Inst_Brick_01_Mesh_Walls_Bedroom_01_MetallicRoughness.png"
		},
		{
			"uri": "Inst_Brick_01_Mesh_Walls_Bedroom_01_Normal.png"
		},
		{
			"uri": "Inst_Wallpaper_01_Mesh_Walls_Bedroom_01_BaseColor.png"
		},
		{
			"uri": "Inst_Wallpaper_01_Mesh_Walls_Bedroom_01_MetallicRoughness.png"
		},
		{
			"uri": "Inst_Wallpaper_01_Mesh_Walls_Bedroom_01_Normal.png"
		},
		{
			"uri": "Inst_Concrete_01_Mesh_Walls_Bedroom_01_BaseColor.png"
		},
		{
			"uri": "Inst_Concrete_01_Mesh_Walls_Bedroom_01_MetallicRoughness.png"
		},
		{
			"uri": "Inst_Concrete_01_Mesh_Walls_Bedroom_01_Normal.png"
		},
		{
			"uri": "Inst_Wallpaper_02_Mesh_Walls_Bedroom_01_BaseColor.png"
		},
		{
			"uri": "Inst_Wallpaper_02_Mesh_Walls_Bedroom_01_MetallicRoughness.png"
		},
		{
			"uri": "Inst_Wallpaper_02_Mesh_Walls_Bedroom_01_Normal.png"
		},
		{
			"uri": "Inst_Concrete_01_Mesh_Walls_Bedroom_01_BaseColor_1.png"
		},
		{
			"uri": "Inst_Concrete_01_Mesh_Walls_Bedroom_01_MetallicRoughness_1.png"
		},
		{
			"uri": "Inst_Concrete_01_Mesh_Walls_Bedroom_01_Normal_1.png"
		},
		{
			"uri": "Inst_Wallpaper_01_Mesh_Walls_Bedroom_01_BaseColor_1.png"
		},
		{
			"uri": "Inst_Wallpaper_01_Mesh_Walls_Bedroom_01_MetallicRoughness_1.png"
		},
		{
			"uri": "Inst_Wallpaper_01_Mesh_Walls_Bedroom_01_Normal_1.png"
		}
	],
	"materials": [
		{
			"name": "Inst_Brick_01_Mesh_Walls_Bedroom_01",
			"pbrMetallicRoughness":
			{
				"baseColorTexture":
				{
					"index": 0,
					"texCoord": 1,
					"extensions":
					{
						"KHR_texture_transform":
						{
							"offset": [ -2.56088567, -1.68891859 ],
							"scale": [ 3.77859783, 2.73431253 ]
						}
					}
				},
				"metallicRoughnessTexture":
				{
					"index": 1,
					"texCoord": 1,
					"extensions":
					{
						"KHR_texture_transform":
						{
							"offset": [ -2.56088567, -1.68891859 ],
							"scale": [ 3.77859783, 2.73431253 ]
						}
					}
				}
			},
			"normalTexture":
			{
				"index": 2,
				"texCoord": 1,
				"extensions":
				{
					"KHR_texture_transform":
					{
						"offset": [ -2.56088567, -1.68891859 ],
						"scale": [ 3.77859783, 2.73431253 ]
					}
				}
			},
			"alphaMode": "MASK",
			"alphaCutoff": 0.333299994,
			"doubleSided": true
		},
		{
			"name": "Inst_Wallpaper_01_Mesh_Walls_Bedroom_01",
			"pbrMetallicRoughness":
			{
				"baseColorTexture":
				{
					"index": 3,
					"texCoord": 1,
					"extensions":
					{
						"KHR_texture_transform":
						{
							"offset": [ -0.0175542608, -0.0198920742 ],
							"scale": [ 1.07920825, 1.03710973 ]
						}
					}
				},
				"metallicRoughnessTexture":
				{
					"index": 4,
					"texCoord": 1,
					"extensions":
					{
						"KHR_texture_transform":
						{
							"offset": [ -0.0175542608, -0.0198920742 ],
							"scale": [ 1.07920825, 1.03710973 ]
						}
					}
				}
			},
			"normalTexture":
			{
				"index": 5,
				"texCoord": 1,
				"extensions":
				{
					"KHR_texture_transform":
					{
						"offset": [ -0.0175542608, -0.0198920742 ],
						"scale": [ 1.07920825, 1.03710973 ]
					}
				}
			},
			"alphaMode": "MASK",
			"alphaCutoff": 0.333299994
		},
		{
			"name": "Inst_Concrete_01_Mesh_Walls_Bedroom_01",
			"pbrMetallicRoughness":
			{
				"baseColorTexture":
				{
					"index": 6,
					"texCoord": 1,
					"extensions":
					{
						"KHR_texture_transform":
						{
							"offset": [ -0.0615544543, -0.0651360676 ],
							"scale": [ 3.78427076, 3.35858154 ]
						}
					}
				},
				"metallicRoughnessTexture":
				{
					"index": 7,
					"texCoord": 1,
					"extensions":
					{
						"KHR_texture_transform":
						{
							"offset": [ -0.0615544543, -0.0651360676 ],
							"scale": [ 3.78427076, 3.35858154 ]
						}
					}
				}
			},
			"normalTexture":
			{
				"index": 8,
				"texCoord": 1,
				"extensions":
				{
					"KHR_texture_transform":
					{
						"offset": [ -0.0615544543, -0.0651360676 ],
						"scale": [ 3.78427076, 3.35858154 ]
					}
				}
			},
			"alphaMode": "MASK",
			"alphaCutoff": 0.333299994,
			"doubleSided": true
		},
		{
			"name": "Inst_Wallpaper_02_Mesh_Walls_Bedroom_01",
			"pbrMetallicRoughness":
			{
				"baseColorTexture":
				{
					"index": 9,
					"texCoord": 1,
					"extensions":
					{
						"KHR_texture_transform":
						{
							"offset": [ -1.15881813, -0.0530445315 ],
							"scale": [ 3.78208685, 2.73511124 ]
						}
					}
				},
				"metallicRoughnessTexture":
				{
					"index": 10,
					"texCoord": 1,
					"extensions":
					{
						"KHR_texture_transform":
						{
							"offset": [ -1.15881813, -0.0530445315 ],
							"scale": [ 3.78208685, 2.73511124 ]
						}
					}
				}
			},
			"normalTexture":
			{
				"index": 11,
				"texCoord": 1,
				"extensions":
				{
					"KHR_texture_transform":
					{
						"offset": [ -1.15881813, -0.0530445315 ],
						"scale": [ 3.78208685, 2.73511124 ]
					}
				}
			},
			"alphaMode": "MASK",
			"alphaCutoff": 0.333299994
		},
		{
			"name": "Inst_Concrete_01_Mesh_Walls_Bedroom_01",
			"pbrMetallicRoughness":
			{
				"baseColorTexture":
				{
					"index": 12,
					"texCoord": 1,
					"extensions":
					{
						"KHR_texture_transform":
						{
							"offset": [ -58.0588226, -0.019908214 ],
							"scale": [ 60.2352943, 1.03712618 ]
						}
					}
				},
				"metallicRoughnessTexture":
				{
					"index": 13,
					"texCoord": 1,
					"extensions":
					{
						"KHR_texture_transform":
						{
							"offset": [ -58.0588226, -0.019908214 ],
							"scale": [ 60.2352943, 1.03712618 ]
						}
					}
				}
			},
			"normalTexture":
			{
				"index": 14,
				"texCoord": 1,
				"extensions":
				{
					"KHR_texture_transform":
					{
						"offset": [ -58.0588226, -0.019908214 ],
						"scale": [ 60.2352943, 1.03712618 ]
					}
				}
			},
			"alphaMode": "MASK",
			"alphaCutoff": 0.333299994,
			"doubleSided": true
		},
		{
			"name": "Inst_Wallpaper_01_Mesh_Walls_Bedroom_01",
			"pbrMetallicRoughness":
			{
				"baseColorTexture":
				{
					"index": 15,
					"texCoord": 1,
					"extensions":
					{
						"KHR_texture_transform":
						{
							"offset": [ -0.0260317456, -0.475998551 ],
							"scale": [ 1.60039067, 1.50091612 ]
						}
					}
				},
				"metallicRoughnessTexture":
				{
					"index": 16,
					"texCoord": 1,
					"extensions":
					{
						"KHR_texture_transform":
						{
							"offset": [ -0.0260317456, -0.475998551 ],
							"scale": [ 1.60039067, 1.50091612 ]
						}
					}
				}
			},
			"normalTexture":
			{
				"index": 17,
				"texCoord": 1,
				"extensions":
				{
					"KHR_texture_transform":
					{
						"offset": [ -0.0260317456, -0.475998551 ],
						"scale": [ 1.60039067, 1.50091612 ]
					}
				}
			},
			"alphaMode": "MASK",
			"alphaCutoff": 0.333299994
		}
	],
	"meshes": [
		{
			"name": "Mesh_Walls_Bedroom_01",
			"primitives": [
				{
					"attributes":
					{
						"POSITION": 1,
						"NORMAL": 2,
						"TANGENT": 3,
						"TEXCOORD_0": 4,
						"TEXCOORD_1": 5
					},
					"indices": 0,
					"material": 0
				},
				{
					"attributes":
					{
						"POSITION": 7,
						"NORMAL": 8,
						"TANGENT": 9,
						"TEXCOORD_0": 10,
						"TEXCOORD_1": 11
					},
					"indices": 6,
					"material": 1
				},
				{
					"attributes":
					{
						"POSITION": 13,
						"NORMAL": 14,
						"TANGENT": 15,
						"TEXCOORD_0": 16,
						"TEXCOORD_1": 17
					},
					"indices": 12,
					"material": 2
				},
				{
					"attributes":
					{
						"POSITION": 19,
						"NORMAL": 20,
						"TANGENT": 21,
						"TEXCOORD_0": 22,
						"TEXCOORD_1": 23
					},
					"indices": 18,
					"material": 3
				},
				{
					"attributes":
					{
						"POSITION": 25,
						"NORMAL": 26,
						"TANGENT": 27,
						"TEXCOORD_0": 28,
						"TEXCOORD_1": 29
					},
					"indices": 24,
					"material": 4
				},
				{
					"attributes":
					{
						"POSITION": 31,
						"NORMAL": 32,
						"TANGENT": 33,
						"TEXCOORD_0": 34,
						"TEXCOORD_1": 35
					},
					"indices": 30,
					"material": 5
				}
			]
		}
	],
	"nodes": [
		{
			"mesh": 0
		}
	],
	"samplers": [
		{
			"minFilter": 9987,
			"magFilter": 9729
		}
	],
	"scenes": [
		{
			"nodes": [ 0 ]
		}
	],
	"textures": [
		{
			"name": "Inst_Brick_01_Mesh_Walls_Bedroom_01_BaseColor",
			"sampler": 0,
			"source": 0
		},
		{
			"name": "Inst_Brick_01_Mesh_Walls_Bedroom_01_MetallicRoughness",
			"sampler": 0,
			"source": 1
		},
		{
			"name": "Inst_Brick_01_Mesh_Walls_Bedroom_01_Normal",
			"sampler": 0,
			"source": 2
		},
		{
			"name": "Inst_Wallpaper_01_Mesh_Walls_Bedroom_01_BaseColor",
			"sampler": 0,
			"source": 3
		},
		{
			"name": "Inst_Wallpaper_01_Mesh_Walls_Bedroom_01_MetallicRoughness",
			"sampler": 0,
			"source": 4
		},
		{
			"name": "Inst_Wallpaper_01_Mesh_Walls_Bedroom_01_Normal",
			"sampler": 0,
			"source": 5
		},
		{
			"name": "Inst_Concrete_01_Mesh_Walls_Bedroom_01_BaseColor",
			"sampler": 0,
			"source": 6
		},
		{
			"name": "Inst_Concrete_01_Mesh_Walls_Bedroom_01_MetallicRoughness",
			"sampler": 0,
			"source": 7
		},
		{
			"name": "Inst_Concrete_01_Mesh_Walls_Bedroom_01_Normal",
			"sampler": 0,
			"source": 8
		},
		{
			"name": "Inst_Wallpaper_02_Mesh_Walls_Bedroom_01_BaseColor",
			"sampler": 0,
			"source": 9
		},
		{
			"name": "Inst_Wallpaper_02_Mesh_Walls_Bedroom_01_MetallicRoughness",
			"sampler": 0,
			"source": 10
		},
		{
			"name": "Inst_Wallpaper_02_Mesh_Walls_Bedroom_01_Normal",
			"sampler": 0,
			"source": 11
		},
		{
			"name": "Inst_Concrete_01_Mesh_Walls_Bedroom_01_BaseColor",
			"sampler": 0,
			"source": 12
		},
		{
			"name": "Inst_Concrete_01_Mesh_Walls_Bedroom_01_MetallicRoughness",
			"sampler": 0,
			"source": 13
		},
		{
			"name": "Inst_Concrete_01_Mesh_Walls_Bedroom_01_Normal",
			"sampler": 0,
			"source": 14
		},
		{
			"name": "Inst_Wallpaper_01_Mesh_Walls_Bedroom_01_BaseColor",
			"sampler": 0,
			"source": 15
		},
		{
			"name": "Inst_Wallpaper_01_Mesh_Walls_Bedroom_01_MetallicRoughness",
			"sampler": 0,
			"source": 16
		},
		{
			"name": "Inst_Wallpaper_01_Mesh_Walls_Bedroom_01_Normal",
			"sampler": 0,
			"source": 17
		}
	],
	"extensionsUsed": [
		"KHR_texture_transform"
	]
}