{
	"asset":
	{
		"version": "2.0",
		"generator": "Unreal Engine 5.3.2"
	},
	"scene": 0,
	"accessors": [
		{
			"bufferView": 0,
			"count": 420,
			"type": "SCALAR",
			"componentType": 5121
		},
		{
			"bufferView": 1,
			"count": 238,
			"type": "VEC3",
			"componentType": 5126,
			"min": [ -0.799999952, 0, -0.15000008 ],
			"max": [ 0.799999952, 2.4000001, 0.149999991 ]
		},
		{
			"bufferView": 2,
			"count": 238,
			"type": "VEC3",
			"componentType": 5126
		},
		{
			"bufferView": 3,
			"count": 238,
			"type": "VEC4",
			"componentType": 5126
		},
		{
			"bufferView": 4,
			"count": 238,
			"type": "VEC2",
			"componentType": 5126
		},
		{
			"bufferView": 5,
			"count": 238,
			"type": "VEC2",
			"componentType": 5126
		}
	],
	"buffers": [
		{
			"uri": "Mesh_Door_Frame_02.bin",
			"byteLength": 13748
		}
	],
	"bufferViews": [
		{
			"buffer": 0,
			"byteLength": 420,
			"target": 34963
		},
		{
			"buffer": 0,
			"byteLength": 2856,
			"byteOffset": 420,
			"target": 34962
		},
		{
			"buffer": 0,
			"byteLength": 2856,
			"byteOffset": 3276,
			"target": 34962
		},
		{
			"buffer": 0,
			"byteLength": 3808,
			"byteOffset": 6132,
			"target": 34962
		},
		{
			"buffer": 0,
			"byteLength": 1904,
			"byteOffset": 9940,
			"target": 34962
		},
		{
			"buffer": 0,
			"byteLength": 1904,
			"byteOffset": 11844,
			"target": 34962
		}
	],
	"images": [
		{
			"uri": "Inst_Door_02_BaseColor.png"
		},
		{
			"uri": "Inst_Door_02_MetallicRoughness.png"
		},
		{
			"uri": "Inst_Door_02_Normal.png"
		},
		{
			"uri": "T_Door_ARM_02.png"
		}
	],
	"materials": [
		{
			"name": "Inst_Door_02",
			"pbrMetallicRoughness":
			{
				"baseColorTexture":
				{
					"index": 0
				},
				"metallicRoughnessTexture":
				{
					"index": 1
				}
			},
			"normalTexture":
			{
				"index": 2
			},
			"occlusionTexture":
			{
				"index": 3
			},
			"alphaMode": "MASK",
			"alphaCutoff": 0.333299994
		}
	],
	"meshes": [
		{
			"name": "Mesh_Door_Frame_02",
			"primitives": [
				{
					"attributes":
					{
						"POSITION": 1,
						"NORMAL": 2,
						"TANGENT": 3,
						"TEXCOORD_0": 4,
						"TEXCOORD_1": 5
					},
					"indices": 0,
					"material": 0
				}
			]
		}
	],
	"nodes": [
		{
			"mesh": 0
		}
	],
	"samplers": [
		{
			"minFilter": 9987,
			"magFilter": 9729
		}
	],
	"scenes": [
		{
			"nodes": [ 0 ]
		}
	],
	"textures": [
		{
			"name": "Inst_Door_02_BaseColor",
			"sampler": 0,
			"source": 0
		},
		{
			"name": "Inst_Door_02_MetallicRoughness",
			"sampler": 0,
			"source": 1
		},
		{
			"name": "Inst_Door_02_Normal",
			"sampler": 0,
			"source": 2
		},
		{
			"name": "T_Door_ARM_02",
			"sampler": 0,
			"source": 3
		}
	]
}